# xmcd
#
# Track frame offsets:
#	150
#	19705
#	45487
#	59967
#	72232
#	93792
#	122505
#	131760
#	159567
#	165765
#	177485
#	192872
#	201292
#	215532
#	244005
#	266810
#
# Disc length: 4051 seconds
#
# Revision: 1
# Processed by: cddbd v1.5.1PL0 Copyright (c) Steve Scherf et al.
# Submitted via: CDex 1.50Beta5
#
DISCID=e40fd110
DTITLE=ヴァイオリン&チェロ - eternal...
DYEAR=1900
DGENRE=Classical
TTITLE0=古川展生,フェビアン・レザ・パネ,岡本昭,斎藤順/リベルタンゴ
TTITLE1=石川静,ヨゼフ・ハーラ/ラ・カンパネラ
TTITLE2=ジャン=ジャック・カントロフ,ジャック・ルヴィエ/スペイン舞曲
TTITLE3=ジャン=ジャック・カントロフ,ジャック・ルヴィエ/バンジョーとフィドル
TTITLE4=小林美恵,上田晴子/スケルツォ・タランテラ
TTITLE5=ジャン=ジャック・カントロフ,ブライデン・トムソン指揮 ロンドン・フィルハーモニー管弦楽団/ヴァイオリン協奏曲ニ長調より第1楽章(掲示部)
TTITLE6=藤原真理,アラン・プラネス/感傷的なワルツ
TTITLE7=石川静,ヨゼフ・ハーラ/華麗なるポロネーズ
TTITLE8=チー・ユン,江口玲/熊蜂の飛行
TTITLE9=藤原真理,ジャック・ルヴィエ/イタリア組曲より序奏
TTITLE10=チー・ユン,ヘスス・ロペス=コポス指揮 ロンドン・フィルハーモニー管弦楽団/ヴァイオリン協奏曲ホ短調より第1楽章(掲示部)
TTITLE11=ジャン=ジャック・カントロフ,ジャック・ルヴィエ/美しきロスマリン
TTITLE12=ジャン=ジャック・カントロフ,ジャック・ルヴィエ/愛の喜び
TTITLE13=チー・ユン,江口玲/ヴァイオリン・ソナタイ短調より第4楽章
TTITLE14=チー・ユン,江口玲/序奏とタランテラ
TTITLE15=ジャン=ジャック・カントロフ,井上道義指揮 新日本フィルハーモニー交響楽団/ツィゴイネルワイゼン
EXTD=
EXTT0=
EXTT1=
EXTT2=
EXTT3=
EXTT4=
EXTT5=
EXTT6=
EXTT7=
EXTT8=
EXTT9=
EXTT10=
EXTT11=
EXTT12=
EXTT13=
EXTT14=
EXTT15=
PLAYORDER=
